<svg id="Warstwa_1" xmlns="http://www.w3.org/2000/svg" version="1.1" viewBox="0 0 626.17 123.08" style="width: 50%; height: auto; max-width: 400px;">
    <path fill="#1d1d1b" d="M64.95,123.08c-9.34,0-17.97-1.49-25.9-4.47-7.93-2.98-14.79-7.23-20.58-12.74-5.79-5.51-10.32-12-13.58-19.49-3.26-7.48-4.89-15.72-4.89-24.72s1.63-17.23,4.89-24.72c3.26-7.48,7.79-13.97,13.58-19.49,5.79-5.51,12.65-9.76,20.58-12.74C46.99,1.75,55.62.26,64.95.26c10.91,0,20.67,1.91,29.27,5.74,8.6,3.83,15.77,9.34,21.51,16.53l-21.26,19.23c-3.82-4.5-8.01-7.93-12.57-10.29-4.55-2.36-9.64-3.54-15.27-3.54-4.84,0-9.28.79-13.33,2.36-4.05,1.58-7.51,3.85-10.38,6.83-2.87,2.98-5.12,6.55-6.75,10.71-1.63,4.16-2.45,8.77-2.45,13.83s.81,9.67,2.45,13.83c1.63,4.16,3.88,7.73,6.75,10.71,2.87,2.98,6.33,5.26,10.38,6.83,4.05,1.58,8.49,2.36,13.33,2.36,5.62,0,10.71-1.18,15.27-3.54,4.56-2.36,8.74-5.79,12.57-10.29l21.26,19.23c-5.74,7.09-12.91,12.57-21.51,16.45-8.61,3.88-18.36,5.82-29.27,5.82Z"/>
    <polygon fill="#1d1d1b" points="441 2.62 390.39 120.72 357.49 120.72 307.05 2.62 343.15 2.62 375.16 79.61 407.93 2.62 441 2.62"/>
    <polygon fill="#1d1d1b" points="338.31 120.72 274.79 120.72 265.43 98.81 224.34 2.62 260.44 2.62 292.46 79.59 298.54 94.23 327 94.23 338.31 120.72"/>
    <path fill="#1d1d1b" d="M599.89,83.55c7.14-3.4,12.72-8.12,16.73-14.21,4.27-6.47,6.42-14.14,6.42-23.02s-2.15-16.79-6.42-23.37c-4.27-6.58-10.31-11.62-18.13-15.1-.14-.06-.26-.12-.4-.17-7.73-3.38-16.91-5.07-27.53-5.07h-61.75l11.24,26.32h48.48c6.97,0,12.18,1.52,15.61,4.56.73.65,1.4,1.36,1.97,2.13,2.12,2.79,3.17,6.36,3.17,10.69,0,5.39-1.7,9.61-5.14,12.64-2.4,2.13-5.67,3.52-9.81,4.14-1.77.28-3.7.42-5.79.42h-33.7l11.02,25.81h22.37l21.42,31.38h35.76l-25.51-37.16Z"/>
    <path fill="#1d1d1b" d="M203.32,2.62h-32.9l-52.13,118.1h34.08l12.6-31.39h43.29l12.6,31.39h34.76L203.32,2.62ZM175.33,63.52l11.29-28.13,11.29,28.13h-22.58Z"/>
    <path fill="#1d1d1b" d="M492.85,2.62h-32.9l-52.13,118.1h34.08l12.6-31.39h43.3l12.6,31.39h34.75L492.85,2.62ZM464.86,63.52l11.29-28.14,11.29,28.14h-22.58Z"/>
</svg>